<svg xmlns="http://www.w3.org/2000/svg" width="40" height="40" viewBox="0 0 40 40"><title>icon-g-plus</title><g id="Layer_2" data-name="Layer 2"><g id="Layer_1-2" data-name="Layer 1"><path d="M11.39,31.2a9.08,9.08,0,0,0-1.33-.06,23.15,23.15,0,0,0-6.1.93,8.43,8.43,0,0,0-4,2.67v3C0,39.74,1.65,40,3.69,40H18.76A2.51,2.51,0,0,0,19,38.95c0-3-3.2-4.6-7.62-7.75" style="fill:#231f20"/><path d="M7.67,25.54a5.26,5.26,0,0,1,.58-2.28c-.64.06-1.28.12-1.86.12A9.9,9.9,0,0,1,0,21.05V31.38c2.63-2.11,7.19-1.73,9.42-1.88a6.13,6.13,0,0,1-1.74-4" style="fill:#231f20"/><path d="M14.74,15.86c0-4.2-2.43-10.73-7.25-10.73A5.43,5.43,0,0,0,3.41,7.05a6.64,6.64,0,0,0-1.14,4.32c0,3.91,2.05,9.68,7,9.68a5.06,5.06,0,0,0,3.9-1.46,6.35,6.35,0,0,0,1.52-3.73" style="fill:#231f20"/><path d="M32.63,21.05H29.47V13.62H22.1V10.53h7.37V3.16h3.16v7.37H40V3.68A3.35,3.35,0,0,0,36.31,0H3.68A3.35,3.35,0,0,0,0,3.68V6.84c.14-.14.31-.3.47-.43a15.28,15.28,0,0,1,10-3.26H22.74L19.48,5.79H15.92a9.36,9.36,0,0,1,3.55,7.39c0,4.31-2.27,6.36-4.71,8.28a4.11,4.11,0,0,0-1.63,2.86,3.2,3.2,0,0,0,1.51,2.51l2.09,1.63c2.56,2.16,5.89,4.66,5.89,8.68A7.3,7.3,0,0,1,22.16,40H36.31c2,0,3.69-.26,3.69-2.29V13.62H32.63Z" style="fill:#231f20"/></g></g></svg>