<svg xmlns="http://www.w3.org/2000/svg" xmlns:xlink="http://www.w3.org/1999/xlink" width="40" height="40" viewBox="0 0 40 40"><defs><clipPath id="clip-path"><rect width="40" height="40" style="fill:none"/></clipPath></defs><title>icon-facebook</title><g id="Layer_2" data-name="Layer 2"><g id="Layer_1-2" data-name="Layer 1"><g style="clip-path:url(#clip-path)"><path d="M24.39,39.84H20V40h3.6a6.76,6.76,0,0,0,.79-.16M40,33.31V6.54A6.56,6.56,0,0,0,33.44,0H6.56A6.56,6.56,0,0,0,0,6.54V33.31a6.56,6.56,0,0,0,6.56,6.54H20V27.59a2.52,2.52,0,0,0-2.52-2.68H15V18.67h5V15.53c0-4.5,3.39-8.16,7.56-8.16h5v6.22h-5c-.6,0-1.26.8-1.26,1.88v3.19h6.3v6.24H26.3V37.32a2.38,2.38,0,0,1-1.91,2.53h9A6.55,6.55,0,0,0,40,33.31" style="fill:#231f20"/></g></g></g></svg>