<svg xmlns="http://www.w3.org/2000/svg" xmlns:xlink="http://www.w3.org/1999/xlink" width="380.13" height="93" viewBox="0 0 380.13 93"><defs><clipPath id="clip-path"><rect width="380.13" height="93" style="fill:none"/></clipPath></defs><title>logo</title><g id="Layer_2" data-name="Layer 2"><g id="Layer_1-2" data-name="Layer 1"><g style="clip-path:url(#clip-path)"><path d="M0,62c0-6.39,5.51-11.64,12.23-11.64S24.5,55.59,24.5,62c0,6.17-5,10.91-11,11.57a9,9,0,0,0-4.89,2.09c7.16-1.43,9.33,3.82,14.25,3.82,3.34,0,5.14-1.14,6.35-3.56l.59.3c-.88,2.57-3.31,6.1-7.64,6.1-4.63,0-8.41-5.76-12-5.76S7.05,78.8,5.77,79a1.08,1.08,0,0,1-1.25-1.17c0-1.1,2.42-3.34,5.73-4.33C4.26,72.45,0,67.63,0,62m3.38,0c0,4.55,2.53,10.17,8.85,10.17S21.12,66.53,21.12,62s-2.53-10.21-8.89-10.21S3.38,57.43,3.38,62" style="fill:#003b71"/><path d="M38,72c2.57,0,4.48-1.47,4.48-4.66V62.09c0-3.67-.44-4.26-2.9-4.26v-.74H47v.74c-2.42,0-2.9.59-2.9,4.26v5c0,4.3-3,6.54-6.58,6.54S31,71.35,31,67v-5c0-3.67-.44-4.26-2.9-4.26v-.74h8.41v.74c-2.42,0-2.9.59-2.9,4.26v5.22C33.64,70.5,35.4,72,38,72" style="fill:#003b71"/><path d="M62.91,69.29l.18-.73h.74L63.54,73H49.8v-.73c2.46,0,2.9-.62,2.9-4.3V62.09c0-3.67-.44-4.26-2.9-4.26v-.73H62.65l.29,4.41h-.77L62,60.77c-.4-1.69-.88-2.35-4.22-2.35H55.31v5.47h.22c3.67,0,4-.44,4-2.9h.73v7.16H59.5c0-2.43-.3-2.9-4-2.9h-.22v2.13c0,3.67.44,4.26,2.9,4.26h.44c3.34,0,3.82-.62,4.26-2.35" style="fill:#003b71"/><path d="M80.36,69.29l.18-.73h.73L81,73H67.24v-.73c2.46,0,2.9-.62,2.9-4.3V62.09c0-3.67-.44-4.26-2.9-4.26v-.73H80.1l.29,4.41h-.77l-.18-.73c-.4-1.69-.88-2.35-4.22-2.35H72.75v5.47H73c3.67,0,4-.44,4-2.9h.73v7.16h-.73c0-2.43-.29-2.9-4-2.9h-.22v2.13c0,3.67.44,4.26,2.9,4.26h.44c3.34,0,3.82-.62,4.26-2.35" style="fill:#003b71"/><path d="M84.69,57.83v-.73h4.52L99,68.7V62.09c0-3.67-.44-4.26-2.9-4.26v-.73h7.16v.73c-2.46,0-2.9.59-2.9,4.26v11.5h-.7L88.95,60.77V68c0,3.67.44,4.3,2.9,4.3V73H84.69v-.73c2.46,0,2.9-.62,2.9-4.3V62.09c0-3.67-.44-4.26-2.9-4.26" style="fill:#003b71"/><path d="M112.67,73.62a7.63,7.63,0,0,1-4.11-1.36,2.94,2.94,0,0,0-.7,1.36h-.66V67.31h.73c.3,3.12,2.28,4.88,5,4.88,1.58,0,2.83-.88,2.83-2.46,0-1.28-1-2.28-3-3.27l-2.5-1.29a5.06,5.06,0,0,1-3-4.48,4.34,4.34,0,0,1,4.59-4.19,6,6,0,0,1,3.49,1.1,2,2,0,0,0,.55-1.14h.73v6.21h-.73c-.22-2.2-1.21-4.81-3.86-4.81-1.43,0-2.64.77-2.64,2.13s1,2,3.19,3.16L115,64.44a4.69,4.69,0,0,1,2.86,4.15,5,5,0,0,1-5.21,5" style="fill:#003b71"/><path d="M134.34,67.93c0,3.67.48,4.3,3.53,4.3V73h-8.37v-.77c3,0,3.49-.62,3.49-4.3V56c0-3.67-.44-4.26-3.49-4.26V51h6.24l7.79,17.88L151.27,51H157v.77c-3.09,0-3.53.59-3.53,4.26V67.93c0,3.67.44,4.3,3.53,4.3V73h-9.92v-.77c3,0,3.49-.62,3.49-4.3V56L143,73.62h-.48l-8.15-18.77Z" style="fill:#003b71"/><path d="M163.46,69.44c-.92,2.17-.92,2.79,2,2.79V73H158.5v-.77c2.24,0,2.57-.44,3.78-3.2l5.4-12.56h.51L173.6,69c1.21,2.76,1.65,3.2,3.6,3.2V73H169v-.77c2.64,0,2.9-.62,2-2.79l-.73-1.69h-6Zm3.75-8.67-2.42,5.62h4.85Z" style="fill:#003b71"/><path d="M179,57.83v-.73h4.52l9.77,11.6V62.09c0-3.67-.44-4.26-2.9-4.26v-.73h7.16v.73c-2.46,0-2.9.59-2.9,4.26v11.5h-.7L183.22,60.77V68c0,3.67.44,4.3,2.9,4.3V73H179v-.73c2.46,0,2.9-.62,2.9-4.3V62.09c0-3.67-.44-4.26-2.9-4.26" style="fill:#003b71"/><path d="M208.41,73.62a8.58,8.58,0,1,1,9-8.59,8.81,8.81,0,0,1-9,8.59m0-15.76c-4.33,0-5.95,4-5.95,7.16s1.62,7.16,5.95,7.16,5.95-4,5.95-7.16-1.62-7.16-5.95-7.16" style="fill:#003b71"/><path d="M230.63,68.85c1.47,1.73,3.16,3.16,4.92,3.42V73h-4.7l-5-6.83h-1V68c0,3.67.44,4.3,2.9,4.3V73h-8.41v-.73c2.46,0,2.9-.62,2.9-4.3V62.09c0-3.67-.44-4.26-2.9-4.26v-.74h7.6c3.78,0,5.88,1.95,5.88,4.55,0,2.24-1.69,4.08-4.44,4.44Zm-3.71-10.43h-2.09v6.39h2.09a2.87,2.87,0,0,0,3-3.16,2.91,2.91,0,0,0-3-3.23" style="fill:#003b71"/><path d="M261.29,64.62v-.73h9.62v.73c-3,0-3.49.62-3.49,4.3v2.79c-4.08,0-5.73,1.91-9.55,1.91a11.65,11.65,0,0,1,0-23.28,9.37,9.37,0,0,1,6.83,3.12A3.76,3.76,0,0,0,266,51.37h.73v8.08H266c-1-4.77-3.86-7.68-8-7.68-5.87,0-8,5.66-8,10.21S251.89,72,258.69,72c3.19,0,6.06-1.73,6.06-5,0-1.58-.92-2.39-3.45-2.39" style="fill:#003b71"/><path d="M275.69,69.44c-.92,2.17-.92,2.79,2,2.79V73h-6.94v-.77c2.24,0,2.57-.44,3.78-3.2l5.4-12.56h.51L285.83,69c1.21,2.76,1.65,3.2,3.6,3.2V73H281.2v-.77c2.64,0,2.9-.62,2-2.79l-.73-1.69h-6Zm3.75-8.67L277,66.39h4.85Z" style="fill:#003b71"/><path d="M302.5,68.85c1.47,1.73,3.16,3.16,4.92,3.42V73h-4.7l-5-6.83h-1V68c0,3.67.44,4.3,2.9,4.3V73h-8.41v-.73c2.46,0,2.9-.62,2.9-4.3V62.09c0-3.67-.44-4.26-2.9-4.26v-.74h7.6c3.78,0,5.88,1.95,5.88,4.55,0,2.24-1.69,4.08-4.44,4.44Zm-3.71-10.43H296.7v6.39h2.09a2.87,2.87,0,0,0,3-3.16,2.91,2.91,0,0,0-3-3.23" style="fill:#003b71"/><path d="M309,72.26c2.46,0,2.9-.62,2.9-4.3V62.09c0-3.67-.44-4.26-2.9-4.26v-.74h7.79c6.24,0,9,3.6,9,7.93s-2.72,8-9,8H309Zm7.9-13.85h-2.39V68.85c0,2.39.26,2.79,2.09,2.79h.29c4.85,0,5.8-3.67,5.8-6.61s-1-6.61-5.8-6.61" style="fill:#003b71"/><path d="M342.6,69.29l.18-.73h.73L343.23,73H329.49v-.73c2.46,0,2.9-.62,2.9-4.3V62.09c0-3.67-.44-4.26-2.9-4.26v-.73h12.86l.29,4.41h-.77l-.18-.73c-.4-1.69-.88-2.35-4.22-2.35H335v5.47h.22c3.67,0,4-.44,4-2.9h.73v7.16h-.73c0-2.43-.3-2.9-4-2.9H335v2.13c0,3.67.44,4.26,2.9,4.26h.44c3.34,0,3.82-.62,4.26-2.35" style="fill:#003b71"/><path d="M346.94,57.83v-.73h4.52l9.77,11.6V62.09c0-3.67-.44-4.26-2.9-4.26v-.73h7.16v.73c-2.46,0-2.9.59-2.9,4.26v11.5h-.7L351.2,60.77V68c0,3.67.44,4.3,2.9,4.3V73h-7.16v-.73c2.46,0,2.9-.62,2.9-4.3V62.09c0-3.67-.44-4.26-2.9-4.26" style="fill:#003b71"/><path d="M374.92,73.62a7.62,7.62,0,0,1-4.11-1.36,2.93,2.93,0,0,0-.7,1.36h-.66V67.31h.73c.29,3.12,2.28,4.88,5,4.88,1.58,0,2.83-.88,2.83-2.46,0-1.28-1-2.28-3-3.27l-2.5-1.29a5.06,5.06,0,0,1-3-4.48,4.33,4.33,0,0,1,4.59-4.19,6,6,0,0,1,3.49,1.1,2.05,2.05,0,0,0,.55-1.14h.74v6.21h-.74c-.22-2.2-1.21-4.81-3.85-4.81-1.43,0-2.65.77-2.65,2.13s1,2,3.2,3.16l2.46,1.29a4.69,4.69,0,0,1,2.86,4.15,5,5,0,0,1-5.21,5" style="fill:#003b71"/><path d="M49.17,90.21c-.61,1.45-.61,1.86,1.32,1.86v.51H45.86v-.51c1.49,0,1.71-.3,2.52-2.13L52,81.57h.34l3.6,8.37c.81,1.84,1.1,2.13,2.4,2.13v.51H52.84v-.51c1.76,0,1.93-.42,1.32-1.86l-.49-1.13h-4Zm2.5-5.78L50,88.18h3.23Z" style="fill:#cfa349"/><path d="M83.47,92.1v.49H77.86V92.1c1.64,0,1.93-.42,1.93-2.87V85.31c0-2.45-.29-2.84-1.93-2.84V82h5.07c2.52,0,3.92,1.3,3.92,3s-1.4,3-3.92,3h-1.4v1.2c0,2.45.29,2.87,1.93,2.87m-.54-9.23h-1.4v4.26h1.4a1.91,1.91,0,0,0,2-2.1,1.94,1.94,0,0,0-2-2.16" style="fill:#cfa349"/><path d="M108.47,90.21c-.61,1.45-.61,1.86,1.32,1.86v.51h-4.63v-.51c1.49,0,1.71-.3,2.52-2.13l3.6-8.37h.34l3.6,8.37c.81,1.84,1.1,2.13,2.4,2.13v.51h-5.48v-.51c1.76,0,1.93-.42,1.32-1.86L113,89.08h-4Zm2.5-5.78-1.62,3.75h3.23Z" style="fill:#cfa349"/><path d="M144.7,89.82A6,6,0,0,0,148,92.1v.49h-3.14L141.52,88h-.69v1.2c0,2.45.29,2.87,1.93,2.87v.49h-5.61V92.1c1.64,0,1.94-.42,1.94-2.87V85.31c0-2.45-.29-2.84-1.94-2.84V82h5.07c2.52,0,3.92,1.3,3.92,3a3.08,3.08,0,0,1-3,3Zm-2.47-7h-1.4v4.26h1.4a1.91,1.91,0,0,0,2-2.1,1.94,1.94,0,0,0-2-2.16" style="fill:#cfa349"/><path d="M169.7,82.94c-2.25,0-2.45.42-2.74,1.57l-.12.49h-.49l.15-3h10.92l.17,3h-.51l-.12-.49c-.29-1.15-.59-1.57-2.84-1.57h-1.27v6.29c0,2.45.32,2.86,2,2.86v.49h-5.63v-.49c1.64,0,2-.42,2-2.86V82.94Z" style="fill:#cfa349"/><path d="M200,89.23c0,2.45.29,2.87,1.93,2.87v.49h-4.77v-.49c1.64,0,1.93-.42,1.93-2.87V85.31c0-2.45-.29-2.84-1.93-2.84V82h3.67l3.65,8.18L208.07,82h3.43v.49c-1.64,0-2,.39-2,2.84v3.92c0,2.45.32,2.87,2,2.87v.49h-5.61v-.49c1.64,0,1.93-.42,1.93-2.87V84.65L204.12,93h-.34L200,84.33Z" style="fill:#cfa349"/><path d="M240.82,90.11l.12-.49h.49l-.2,3h-9.16V92.1c1.64,0,1.93-.42,1.93-2.86V85.31c0-2.45-.29-2.84-1.93-2.84V82h8.57l.2,2.94h-.51l-.12-.49c-.27-1.13-.59-1.57-2.81-1.57h-1.64v3.65h.15c2.45,0,2.64-.29,2.64-1.93H239v4.77h-.49c0-1.62-.19-1.94-2.64-1.94h-.15v1.42c0,2.45.29,2.84,1.93,2.84H238c2.23,0,2.55-.42,2.84-1.57" style="fill:#cfa349"/><path d="M262.07,82.47V82h3l6.51,7.74V85.31c0-2.45-.29-2.84-1.93-2.84V82h4.77v.49c-1.64,0-1.93.39-1.93,2.84V93H272l-7.12-8.54v4.8c0,2.45.29,2.87,1.93,2.87v.49h-4.77V92.1c1.64,0,1.93-.42,1.93-2.87V85.31c0-2.45-.3-2.84-1.93-2.84" style="fill:#cfa349"/><path d="M297.35,82.94c-2.25,0-2.45.42-2.74,1.57l-.12.49H294l.15-3h10.92l.17,3h-.51l-.12-.49c-.29-1.15-.59-1.57-2.84-1.57h-1.27v6.29c0,2.45.32,2.86,2,2.86v.49h-5.63v-.49c1.64,0,2-.42,2-2.86V82.94Z" style="fill:#cfa349"/><path d="M328.82,93a5.09,5.09,0,0,1-2.74-.9,2,2,0,0,0-.47.9h-.44V88.79h.49A3.25,3.25,0,0,0,329,92a1.68,1.68,0,0,0,1.89-1.64c0-.86-.69-1.52-2-2.18l-1.66-.86a3.37,3.37,0,0,1-2-3,2.89,2.89,0,0,1,3.06-2.79,4,4,0,0,1,2.33.73,1.37,1.37,0,0,0,.37-.76h.49V85.7h-.49c-.15-1.47-.81-3.21-2.57-3.21-1,0-1.76.52-1.76,1.42s.63,1.32,2.13,2.11l1.64.86a3.12,3.12,0,0,1,1.91,2.77A3.34,3.34,0,0,1,328.82,93" style="fill:#cfa349"/><path d="M189.59,0a1.68,1.68,0,0,0-1.13.54,9.76,9.76,0,0,0-2.92,4,10.75,10.75,0,0,0-.65,5c0,.06,0,.25-.1.2a5.41,5.41,0,0,0-6.61,1,4.74,4.74,0,0,0-1.23,2.64c-.09.88,0,2.58.73,2.88.23.09.43-.22.6-.49a4.31,4.31,0,0,1,.53-.7,3.26,3.26,0,0,1,2.37-.95,3.6,3.6,0,0,1,3.61,2.64,10.11,10.11,0,0,1,9.61,0A3.6,3.6,0,0,1,198,14.22a3.26,3.26,0,0,1,2.37.95,4.58,4.58,0,0,1,.53.7c.17.27.37.59.6.49.73-.3.82-2,.73-2.88A4.71,4.71,0,0,0,201,10.84a5.41,5.41,0,0,0-6.61-1c-.09,0-.11-.14-.1-.2a10.77,10.77,0,0,0-.65-5,9.74,9.74,0,0,0-2.92-4A1.68,1.68,0,0,0,189.59,0" style="fill:#cfa349"/><path d="M189.59,42.7a2.84,2.84,0,0,1-2.43-1.5,3,3,0,0,1,1.47-4c.22-.09.23-.36.24-.59s.06-2.32,0-3.25c0-.12-.06-.25-.12-.26h-3.57a.33.33,0,0,0-.31.27,19.91,19.91,0,0,1-.85,2.78,9.91,9.91,0,0,1-4.14,5.18c-1.3.71-3.65.94-4.8-.26a2.05,2.05,0,0,1,2.43-3.29,2.13,2.13,0,0,1,.95,1.57A4.76,4.76,0,0,0,181,37.5a7.74,7.74,0,0,0,.82-1.34,7,7,0,0,0,.69-2.7.27.27,0,0,0-.15-.22c-.78-.17-1.53,0-2.31-.09a1.31,1.31,0,0,1-1-1.64,1.26,1.26,0,0,1,.93-1,24.39,24.39,0,0,1,2.46-.2c.29,0,.19-.45.16-.72,0,0,0,0,0,0a9.06,9.06,0,0,0-.51-2.28,13.74,13.74,0,0,0-1.36-2.93A7.58,7.58,0,0,0,173.21,21c-5.12.74-5.6,5.54-4.93,6.77a4.25,4.25,0,0,1,3-2.52A4.2,4.2,0,0,1,176,28.42a4.8,4.8,0,0,1,.13,1.21,5.08,5.08,0,0,1-1.55,3.49,5.7,5.7,0,0,1-2.75,1.53,5.84,5.84,0,0,1-4.49-.76,6.8,6.8,0,0,1-3-4.26,10,10,0,0,1-.21-1.09c-.23-1.63-.11-8.63,7-10.42a10.78,10.78,0,0,1,9.69,2.27,12.55,12.55,0,0,1,4.33,9.23c0,.13,0,.25,0,.38s0,.26.1.26h3.28c.07,0,.15-.14.15-.22s0-.28,0-.42a22.82,22.82,0,0,0-1.36-6.43A15.11,15.11,0,0,0,186,20.56a9,9,0,0,1-.94-1.32,1,1,0,0,1,0-.84,2.78,2.78,0,0,1,1.09-1.06,5.25,5.25,0,0,1,2.24-.7,8.71,8.71,0,0,1,2.38,0,5.25,5.25,0,0,1,2.24.7,2.78,2.78,0,0,1,1.09,1.06,1,1,0,0,1,0,.84,9.26,9.26,0,0,1-.94,1.32,15,15,0,0,0-1.34,2.64,22.6,22.6,0,0,0-1.36,6.43c0,.14,0,.28,0,.42s.07.21.15.22h3.28c.09,0,.1-.14.1-.26s0-.25,0-.38a12.55,12.55,0,0,1,4.33-9.23A10.78,10.78,0,0,1,208,18.12c7.13,1.79,7.25,8.79,7,10.42a9.56,9.56,0,0,1-.21,1.09,6.81,6.81,0,0,1-3,4.26,5.84,5.84,0,0,1-4.49.76,5.68,5.68,0,0,1-2.75-1.53,5.08,5.08,0,0,1-1.55-3.49,4.9,4.9,0,0,1,.13-1.21,4.2,4.2,0,0,1,4.69-3.18,4.25,4.25,0,0,1,3,2.52c.67-1.23.19-6-4.93-6.77a7.58,7.58,0,0,0-7.45,3.43,13.7,13.7,0,0,0-1.36,2.93,9.1,9.1,0,0,0-.51,2.28h0c0,.27-.13.69.16.72a24.45,24.45,0,0,1,2.46.2,1.25,1.25,0,0,1,.93,1,1.31,1.31,0,0,1-1,1.64c-.78.11-1.52-.08-2.31.09a.26.26,0,0,0-.14.22,7,7,0,0,0,.68,2.7,7.64,7.64,0,0,0,.83,1.34,4.76,4.76,0,0,0,2.55,1.87,2.13,2.13,0,0,1,.95-1.57,2.05,2.05,0,0,1,2.43,3.29c-1.16,1.2-3.5,1-4.81.26a9.9,9.9,0,0,1-4.13-5.18,20.19,20.19,0,0,1-.85-2.78.33.33,0,0,0-.31-.27h-3.57c-.06,0-.11.14-.12.26-.09.92,0,3.08,0,3.25s0,.49.24.59a3,3,0,0,1,1.47,4,2.84,2.84,0,0,1-2.43,1.5" style="fill:#cfa349"/></g></g></g></svg>