
<svg xmlns="http://www.w3.org/2000/svg" width="28" height="32" viewBox="0 0 28 32"><g><path d="M26.8 26.3c-1.6.5-3.1 1-4.7 1.5-.4-.9-.8-1.8-1.1-2.7-.9-2.1-1.7-4.1-2.6-6.2-.1-.3-.3-.3-.6-.3-3 0-5.9 0-8.9.1-.6 0-.6 0-.7-.6-.2-2.3-.4-4.6-.6-6.8-.1-2.1-.2-3.9-.4-5.8 0-.1-.1-.3-.2-.4-.5-1.1-.4-2.3.3-3.1.8-.9 1.9-1.2 3-.8 1.1.4 1.8 1.4 1.9 2.5 0 1.1-.7 2.2-1.8 2.6-.4.1-.5.3-.4.7.1 1.4.1 2.8.1 4.2 0 .4.2.5.5.5 1.7 0 3.5 0 5.2 0 .4 0 .5.1.5.5 0 .7 0 1.3 0 2h-5.5v1.9c.2 0 .3 0 .5 0 2.8 0 5.6 0 8.4 0 .2 0 .4.1.5.3 1.1 2.6 2.1 5.2 3.2 7.9 0 .1.1.2.1.3.7-.2 1.4-.3 2-.5.3-.1.4 0 .5.3.2.5.5 1.2.8 1.9M6.9 11.9c.1 1.1.1 2.2.1 3.2 0 .1-.1.2-.3.3-1 1.2-1.9 2.4-2.3 3.9-.4 2 0 3.7 1.1 5.3 2.2 3 6.6 4 9.7 2.4 1.8-.9 2.9-2.4 3.6-4.3 0-.1.1-.2.2-.4.1.4.2.6.3.9.2.8.5 1.7.7 2.5 0 .1 0 .3 0 .4-1.5 2-3.3 3.7-5.8 4.4-2.9.8-5 .5-8.1-1.1-2.3-1.4-4.2-3.9-4.8-6.8-.6-2.8.5-5.7 2.3-7.9.5-.6 1.1-1.2 1.7-1.7.5-.3 1-.7 1.6-1.1"/></g></svg>