
<?xml version="1.0" encoding="utf-8"?>
<!-- Generator: Adobe Illustrator 18.0.0, SVG Export Plug-In . SVG Version: 6.00 Build 0)  -->
<!DOCTYPE svg PUBLIC "-//W3C//DTD SVG 1.1//EN" "http://www.w3.org/Graphics/SVG/1.1/DTD/svg11.dtd">
<svg version="1.1" xmlns="http://www.w3.org/2000/svg" xmlns:xlink="http://www.w3.org/1999/xlink" x="0px" y="0px" width="28px"
   height="32px" viewBox="0 0 28 32" enable-background="new 0 0 28 32" xml:space="preserve">
<g id="Layer_1" display="none">
  <g display="inline">
    <g>
      <path d="M22.7,19.4H5.4V9.9L14,4.6c3,1.7,6,3.3,8.8,5.3V19.4z M13.6,1L0.5,8.9v3.2h1.7l0,10h23.5v-10l1.8,0V9.2
        C23,6.2,18.3,3.7,13.6,1"/>
    </g>
    <rect x="9.4" y="14.4" width="9" height="2.9"/>
    <rect x="9.4" y="10.8" width="9" height="2.9"/>
    <polygon points="3.7,26.4 2.1,26.4 2.1,23.4 3.7,23.4 3.7,23.8 2.4,23.8 2.4,24.7 3.6,24.7 3.6,25.1 2.4,25.1 2.4,26.1 3.7,26.1
          "/>
    <g>
      <path d="M5.2,25.6l0.3,0.3c0.2-0.2,0.2-0.5,0.2-0.9c0-0.7-0.3-1.2-0.7-1.2c-0.5,0-0.7,0.5-0.7,1.2c0,0.7,0.3,1.2,0.7,1.2
        c0.1,0,0.2,0,0.3-0.1L5,25.8L5.2,25.6z M5.8,26.7l-0.3-0.4c-0.1,0.1-0.3,0.2-0.6,0.2c-0.8,0-1-0.9-1-1.6c0-0.6,0.2-1.6,1-1.6
        s1,0.9,1,1.6c0,0.4-0.1,0.8-0.3,1.2L6,26.4L5.8,26.7z"/>
      <path d="M8,23.4v1.9c0,0.6-0.3,1.1-0.9,1.1c-0.6,0-0.8-0.5-0.8-1.1v-2h0.3v1.9c0,0.6,0.3,0.8,0.5,0.8c0.3,0,0.6-0.2,0.6-0.8v-1.9
        H8z"/>
    </g>
    <path d="M9.5,25.2l-0.3-1.3h0l-0.3,1.3H9.5z M8.7,25.6l-0.2,0.9H8.2l0.8-3h0.3l0.8,3H9.8l-0.2-0.9H8.7z"/>
    <polygon points="10.6,26.1 11.7,26.1 11.7,26.4 10.3,26.4 10.3,23.4 10.6,23.4    "/>
    <polygon points="14.1,23.4 14.3,23.4 14.3,26.4 14.1,26.4 14.1,25 12.9,25 12.9,26.4 12.7,26.4 12.7,23.4 12.9,23.4 12.9,24.7
      14.1,24.7     "/>
    <g>
      <path d="M15.7,23.7c-0.5,0-0.7,0.5-0.7,1.2c0,0.7,0.3,1.2,0.7,1.2s0.7-0.5,0.7-1.2C16.4,24.2,16.1,23.7,15.7,23.7 M15.7,26.5
        c-0.8,0-1-0.9-1-1.6c0-0.6,0.2-1.6,1-1.6c0.8,0,1,0.9,1,1.6C16.7,25.6,16.5,26.5,15.7,26.5"/>
      <path d="M18.4,23.4v1.9c0,0.6-0.3,0.8-0.6,0.8c-0.3,0-0.5-0.2-0.5-0.8v-1.9H17v2c0,0.6,0.2,1.1,0.8,1.1c0.6,0,0.9-0.5,0.9-1.1
        v-1.9H18.4z"/>
      <path d="M20.4,24.3c0-0.5-0.3-0.6-0.5-0.6c-0.2,0-0.5,0.1-0.5,0.5c0,0.3,0.1,0.3,0.3,0.4l0.6,0.2c0.3,0.1,0.5,0.3,0.5,0.8
        c0,0.7-0.5,0.9-0.8,0.9c-0.4,0-0.6-0.2-0.6-0.3C19,26,19,25.7,19,25.5h0.3c0,0.5,0.3,0.7,0.6,0.7c0.2,0,0.6-0.1,0.6-0.5
        c0-0.3-0.1-0.4-0.5-0.5L19.5,25c-0.1,0-0.5-0.2-0.5-0.7c0-0.5,0.2-0.9,0.7-0.9c0.7,0,0.8,0.6,0.8,0.9H20.4z"/>
    </g>
    <rect x="21.1" y="23.4" width="0.3" height="3"/>
    <polygon points="23.2,23.4 23.5,23.4 23.5,26.4 23.2,26.4 22.1,24 22.1,24 22.1,26.4 21.8,26.4 21.8,23.4 22.1,23.4 23.2,25.8
      23.2,25.8     "/>
    <g>
      <path d="M24.8,24.8h0.9v1.6h-0.2L25.5,26c-0.1,0.3-0.4,0.5-0.7,0.5c-0.4,0-0.5-0.2-0.7-0.3c-0.3-0.4-0.3-0.9-0.3-1.3
        c0-0.7,0.3-1.5,1-1.5c0.4,0,0.8,0.3,0.9,1h-0.3c-0.1-0.5-0.4-0.6-0.6-0.6c-0.4,0-0.7,0.4-0.7,1.2c0,0.6,0.1,1.2,0.7,1.2
        c0.1,0,0.3,0,0.4-0.2c0.2-0.2,0.2-0.5,0.2-0.8h-0.7V24.8z"/>
      <path d="M3.1,28.2c-0.5,0-0.9,0.5-0.9,1.2c0,0.7,0.3,1.2,0.9,1.2S4,30.1,4,29.4C4,28.7,3.6,28.2,3.1,28.2 M3.1,31
        c-0.9,0-1.2-0.9-1.2-1.6c0-0.6,0.3-1.6,1.2-1.6s1.2,0.9,1.2,1.6C4.3,30.1,4,31,3.1,31"/>
      <path d="M5,29.3h0.7c0.3,0,0.5-0.1,0.5-0.5c0-0.4-0.2-0.5-0.5-0.5H5V29.3z M5,30.9H4.7v-3h1.1c0.5,0,0.7,0.4,0.7,0.8
        c0,0.4-0.2,0.9-0.7,0.9H5V30.9z"/>
      <path d="M7.3,29.3h0.7c0.3,0,0.5-0.1,0.5-0.5c0-0.4-0.2-0.5-0.5-0.5H7.3V29.3z M7.3,30.9H6.9v-3H8c0.5,0,0.7,0.4,0.7,0.8
        c0,0.4-0.2,0.9-0.7,0.9H7.3V30.9z"/>
      <path d="M10.2,28.2c-0.5,0-0.9,0.5-0.9,1.2c0,0.7,0.3,1.2,0.9,1.2c0.5,0,0.9-0.5,0.9-1.2C11.1,28.7,10.8,28.2,10.2,28.2 M10.2,31
        C9.3,31,9,30.1,9,29.4c0-0.6,0.3-1.6,1.2-1.6c0.9,0,1.2,0.9,1.2,1.6C11.4,30.1,11.2,31,10.2,31"/>
      <path d="M12.1,29.3h0.8c0.2,0,0.5-0.1,0.5-0.5c0-0.5-0.3-0.5-0.4-0.5h-0.8V29.3z M12.1,30.9h-0.3v-3H13c0.4,0,0.8,0.2,0.8,0.8
        c0,0.4-0.2,0.6-0.3,0.7c0.1,0.1,0.3,0.1,0.3,0.6l0,0.5c0,0.2,0,0.2,0.1,0.3v0.1h-0.4c0-0.2-0.1-0.6-0.1-0.7c0-0.2,0-0.5-0.4-0.5
        h-0.8V30.9z"/>
    </g>
    <polygon points="14,27.9 14,28.3 14.8,28.3 14.8,30.9 15.2,30.9 15.2,28.3 16,28.3 16,27.9    "/>
    <g>
      <path d="M17.9,27.9v1.9c0,0.6-0.3,0.8-0.7,0.8c-0.3,0-0.6-0.2-0.6-0.8v-1.9h-0.3v2c0,0.6,0.3,1.1,1,1.1c0.7,0,1-0.5,1-1.1v-1.9
        H17.9z"/>
    </g>
    <polygon points="20.4,27.9 20.4,30.3 20.4,30.3 19.1,27.9 18.7,27.9 18.7,30.9 19,30.9 19,28.5 19,28.5 20.3,30.9 20.7,30.9
      20.7,27.9     "/>
    <rect x="21.2" y="27.9" width="0.3" height="3"/>
    <polygon points="21.8,27.9 21.8,28.3 22.7,28.3 22.7,30.9 23,30.9 23,28.3 23.9,28.3 23.9,27.9    "/>
    <polygon points="25.7,27.9 25,29.4 24.3,27.9 23.9,27.9 24.8,29.7 24.8,30.9 25.2,30.9 25.2,29.7 26.1,27.9    "/>
  </g>
</g>
<g id="Layer_2">
  <g>
    <path d="M26.8,26.3c-1.6,0.5-3.1,1-4.7,1.5c-0.4-0.9-0.8-1.8-1.1-2.7c-0.9-2.1-1.7-4.1-2.6-6.2c-0.1-0.3-0.3-0.3-0.6-0.3
      c-3,0-5.9,0-8.9,0.1c-0.6,0-0.6,0-0.7-0.6c-0.2-2.3-0.4-4.6-0.6-6.8C7.5,9.2,7.4,7.4,7.2,5.5c0-0.1-0.1-0.3-0.2-0.4
      C6.5,4,6.6,2.8,7.3,2c0.8-0.9,1.9-1.2,3-0.8c1.1,0.4,1.8,1.4,1.9,2.5c0,1.1-0.7,2.2-1.8,2.6C10,6.4,9.9,6.6,10,7
      c0.1,1.4,0.1,2.8,0.1,4.2c0,0.4,0.2,0.5,0.5,0.5c1.7,0,3.5,0,5.2,0c0.4,0,0.5,0.1,0.5,0.5c0,0.7,0,1.3,0,2h-5.5v1.9
      c0.2,0,0.3,0,0.5,0c2.8,0,5.6,0,8.4,0c0.2,0,0.4,0.1,0.5,0.3c1.1,2.6,2.1,5.2,3.2,7.9c0,0.1,0.1,0.2,0.1,0.3
      c0.7-0.2,1.4-0.3,2-0.5c0.3-0.1,0.4,0,0.5,0.3C26.2,24.9,26.5,25.6,26.8,26.3"/>
    <path d="M6.9,11.9C7,13,7,14.1,7,15.1c0,0.1-0.1,0.2-0.3,0.3c-1,1.2-1.9,2.4-2.3,3.9C4,21.3,4.4,23,5.5,24.6c2.2,3,6.6,4,9.7,2.4
      c1.8-0.9,2.9-2.4,3.6-4.3c0-0.1,0.1-0.2,0.2-0.4c0.1,0.4,0.2,0.6,0.3,0.9c0.2,0.8,0.5,1.7,0.7,2.5c0,0.1,0,0.3,0,0.4
      c-1.5,2-3.3,3.7-5.8,4.4c-2.9,0.8-5,0.5-8.1-1.1c-2.3-1.4-4.2-3.9-4.8-6.8c-0.6-2.8,0.5-5.7,2.3-7.9c0.5-0.6,1.1-1.2,1.7-1.7
      C5.8,12.7,6.3,12.3,6.9,11.9"/>
  </g>
</g>
</svg>
