<svg xmlns="http://www.w3.org/2000/svg" width="132.5" height="21.62" viewBox="0 0 132.5 21.62"><title>icon-res1-logo</title><g id="Layer_2" data-name="Layer 2"><g id="Layer_1-2" data-name="Layer 1"><path d="M91.84,3.18A10.71,10.71,0,0,0,88.46.86a10.46,10.46,0,0,0-8.29,0A10.79,10.79,0,0,0,76.8,3.18a11,11,0,0,0-2.27,3.46,10.72,10.72,0,0,0-.81,3.74h4.35a6.12,6.12,0,0,1,.48-2,6.83,6.83,0,0,1,1.36-2,6.39,6.39,0,0,1,2-1.4,5.85,5.85,0,0,1,2.44-.51A5.74,5.74,0,0,1,86.74,5a6.47,6.47,0,0,1,2,1.4,6.66,6.66,0,0,1,1.34,2,6.57,6.57,0,0,1,0,5,6.47,6.47,0,0,1-1.34,2,6.55,6.55,0,0,1-2,1.39,5.48,5.48,0,0,1-.68.26v4.56a10,10,0,0,0,2.4-.7,10.65,10.65,0,0,0,3.39-2.33,11.22,11.22,0,0,0,2.29-3.45A10.59,10.59,0,0,0,95,10.9a10.7,10.7,0,0,0-.85-4.26,11.2,11.2,0,0,0-2.29-3.46"/><polygon points="111.43 13.55 102.24 0.41 100.62 0.41 97.05 0.41 97.05 21.54 100.62 21.54 100.62 6.13 111.43 21.54 115.26 21.54 115.26 0.41 111.43 0.41 111.43 13.55"/><polygon points="121.93 17.59 121.93 13.11 128.17 13.11 128.17 9.02 121.93 9.02 121.93 4.27 132.5 4.27 132.5 0.38 117.55 0.38 117.55 21.48 132.5 21.48 132.5 17.59 121.93 17.59"/><path d="M0,9.47H4q4,0,4,3.24v.81q0,3.24-3.23,3.24l1.62,2.43,1.61,2.43h-2L2.83,16.76H1.61v4.86H0Zm1.61,5.67H4q2.42,0,2.42-1.62v-.81q0-1.62-2.42-1.62H1.61Z"/><path d="M16.48,20v1.62H13.25q-4,0-4-3.24V15.95q0-3.24,4-3.24t4,2.43v.81q0,2.43-4,2.43H10.83q0,1.62,2.42,1.62Zm-5.63-3.24h2.42q2.42,0,2.37-1.22t-2.4-1.22q-2.42,0-2.41,1.22Z"/><path d="M22.7,14.33q-2.42,0-2.42,1.19,0,.81,2.42.81,4,0,4,2.44,0,2.85-4,2.85t-4-2.43h1.62q0,.81,2.42.81t2.42-1.16q0-1.27-2.42-.89-4,0-4-2.43,0-2.81,4-2.81t4,2.43H25.12q0-.81-2.42-.81"/><path d="M29.73,11.09H28.12V9.47h1.61Zm0,10.53H28.12V12.71h1.61Z"/><path d="M35.38,21.62q-4,0-4-4V15.95q0-3.24,4-3.24H37.8V9.47h1.61V21.62Zm2.42-7.29H35.38Q33,14.33,33,15.95v2.43Q33,20,35.38,20H37.8Z"/><path d="M48.3,20v1.62H45.07q-4,0-4-3.24V15.95q0-3.24,4-3.24t4,2.43v.81q0,2.43-4,2.43H42.65q0,1.62,2.42,1.62Zm-5.63-3.24h2.42q2.42,0,2.37-1.22t-2.4-1.22q-2.42,0-2.41,1.22Z"/><path d="M52.34,21.62H50.72V12.71h4q4,0,4,3.24v5.67H57.18V15.95q0-1.62-2.42-1.62H52.34Z"/><path d="M61.55,9.47h1.62v3.24h2.42v1.62H63.16v4.05q0,1.62,2.42,1.62h.81v1.62h-.81q-4,0-4-3.24V14.33H59.94V12.71h1.61Z"/><path d="M69.62,11.09H68V9.47h1.61Zm0,10.53H68V12.71h1.61Z"/><path d="M72,14.33V12.71h3.23q4,0,4,3.24v5.67h-4q-4,0-4-2.43v-.81q0-2.43,4-2.43H77.7q0-1.62-2.42-1.62Zm5.63,3.24H75.25q-2.42,0-2.37,1.22T75.27,20H77.7Z"/><polygon points="79.5 9.47 82.73 9.47 82.73 20 84.35 20 84.35 21.62 81.12 21.62 81.12 11.09 79.5 11.09 79.5 9.47"/></g></g></svg>