<svg xmlns="http://www.w3.org/2000/svg" width="132.35" height="28.83" viewBox="0 0 132.35 28.83"><title>icon-ahd-logo</title><g id="Layer_2" data-name="Layer 2"><g id="Layer_1-2" data-name="Layer 1"><polygon points="9.64 22.85 5.14 28.61 16.62 28.61 16.62 22.85 9.64 22.85"/><rect x="20.23" y="19.26" width="9.39" height="9.35"/><polygon points="0 6.99 0 28.61 0.72 28.61 17.62 6.99 0 6.99"/><path d="M33.29,28.61H46.86V17.8c0,5.77-5,10.76-13.58,10.8"/><polygon points="20.21 9.33 20.23 9.33 20.23 15.65 29.62 15.65 29.62 6.99 20.21 6.99 20.21 9.32 20.21 9.33"/><polygon points="16.62 19.9 16.62 13.92 11.94 19.9 16.62 19.9"/><path d="M33.23,7h0c8.68,0,13.64,5,13.64,10.8V7Z"/><path d="M33.23,10.4V25.21c6.81,0,9.79-3.5,9.79-7.41s-3-7.33-9.79-7.41"/><path d="M33.17,28.61h0Z"/><path d="M128.6,28.69h1.18V21.47h2.57v-1H126v1h2.57Zm-9.85,0h1.18v-6.8h0l3.74,6.8h1.51V20.43H124v6.65h0l-3.65-6.65h-1.61Zm-6.16,0h4.63v-1h-3.45V24.92h3.14v-1h-3.14V21.47h3.45v-1h-4.63Zm-10.87,0h1.18V21.54h0l2.74,7.15h1.16l2.74-7.15h0v7.15h1.18V20.43h-2l-2.55,6.87-2.59-6.87h-2Zm-6.18,0h4.63v-1H96.72V24.92h3.14v-1H96.72V21.47h3.45v-1H95.54Zm-1.88-8a6.26,6.26,0,0,0-2.43-.41,4.12,4.12,0,0,0-4.37,4.24,4.07,4.07,0,0,0,4.36,4.31,7.52,7.52,0,0,0,2.52-.37v-4.3H90.81v1h1.74v2.51a4.78,4.78,0,0,1-1.33.14,3.08,3.08,0,0,1-3.12-3.23,3.08,3.08,0,0,1,3.17-3.23,3.8,3.8,0,0,1,2.27.57Zm-9.72,4.94H80.64l1.65-4.1Zm-5.75,3.05h1.24l.84-2.08h4l.84,2.08h1.29l-3.49-8.26H81.71Zm-7.29,0h1.18v-6.8h0l3.74,6.8h1.52V20.43H76.16v6.65h0l-3.65-6.65H70.88Zm-3.34-3.05H64.25l1.64-4.1Zm-5.75,3.05H63l.84-2.08h4l.84,2.08h1.29l-3.49-8.26H65.32Zm-9.9,0h1.18V21.54h0l2.74,7.15H57l2.74-7.15h0v7.15h1.18V20.43H59l-2.55,6.87-2.59-6.87h-2Z"/><rect width="131.72" height="0.63"/></g></g></svg>