<svg xmlns="http://www.w3.org/2000/svg" xmlns:xlink="http://www.w3.org/1999/xlink" width="28.77" height="31.99" viewBox="0 0 28.77 31.99"><defs><clipPath id="clip-path"><rect width="28.77" height="31.99" style="fill:none"/></clipPath></defs><title>icon-eho</title><g id="Layer_2" data-name="Layer 2"><g id="Layer_1-2" data-name="Layer 1"><g style="clip-path:url(#clip-path)"><path d="M14,0,0,8.41v3.41H1.81l0,10.65h25V11.82h1.88V8.7C24,5.51,19,2.83,14,0M23.7,19.64H5.22V9.49l9.13-5.65A94.23,94.23,0,0,1,23.7,9.49Z" style="fill:#231f20"/></g><rect x="9.48" y="14.28" width="9.57" height="3.04" style="fill:#231f20"/><rect x="9.46" y="10.41" width="9.57" height="3.04" style="fill:#231f20"/><polygon points="3.4 27.11 1.72 27.11 1.72 23.93 3.38 23.93 3.38 24.31 2.03 24.31 2.03 25.28 3.28 25.28 3.28 25.66 2.03 25.66 2.03 26.73 3.4 26.73 3.4 27.11" style="fill:#231f20"/><g style="clip-path:url(#clip-path)"><path d="M5.67,27.35,5.32,27a.86.86,0,0,1-.59.21c-.85,0-1.11-1-1.11-1.67s.26-1.67,1.11-1.67,1.11,1,1.11,1.67a2.25,2.25,0,0,1-.33,1.24l.31.34ZM5,26.19l.29.31a1.72,1.72,0,0,0,.25-1c0-.75-.3-1.29-.79-1.29s-.79.54-.79,1.29.3,1.29.79,1.29a.57.57,0,0,0,.34-.1l-.24-.26Z" style="fill:#231f20"/><path d="M8,23.93V26c0,.65-.29,1.2-.92,1.2s-.88-.55-.88-1.14V23.93h.31v2c0,.69.3.88.58.88s.6-.18.6-.87v-2Z" style="fill:#231f20"/></g><path d="M8.74,26.18l-.24.92H8.18L9,23.93h.35l.82,3.17H9.88l-.23-.92Zm.8-.38L9.2,24.4h0l-.36,1.4Z" style="fill:#231f20"/><polygon points="10.74 26.73 11.89 26.73 11.89 27.11 10.43 27.11 10.43 23.93 10.74 23.93 10.74 26.73" style="fill:#231f20"/><polygon points="14.45 23.93 14.76 23.93 14.76 27.11 14.45 27.11 14.45 25.63 13.26 25.63 13.26 27.11 12.95 27.11 12.95 23.93 13.26 23.93 13.26 25.25 14.45 25.25 14.45 23.93" style="fill:#231f20"/><g style="clip-path:url(#clip-path)"><path d="M16.17,27.19c-.85,0-1.11-1-1.11-1.67s.26-1.67,1.11-1.67,1.11,1,1.11,1.67-.26,1.67-1.11,1.67m0-3c-.5,0-.79.54-.79,1.29s.3,1.29.79,1.29.79-.54.79-1.29-.3-1.29-.79-1.29" style="fill:#231f20"/><path d="M19.08,23.93v2c0,.69-.32.87-.6.87s-.58-.19-.58-.88v-2h-.31V26c0,.59.26,1.14.88,1.14s.92-.55.92-1.2V23.93Z" style="fill:#231f20"/><path d="M21.18,24.86c0-.49-.31-.65-.57-.65a.49.49,0,0,0-.52.56.37.37,0,0,0,.27.4l.65.21a.78.78,0,0,1,.52.85.85.85,0,0,1-.89,1,.77.77,0,0,1-.69-.3,1.2,1.2,0,0,1-.23-.8H20c0,.57.34.74.63.74a.52.52,0,0,0,.6-.53c0-.33-.11-.44-.49-.56l-.47-.15a.7.7,0,0,1-.49-.75c0-.49.23-1,.78-1,.8,0,.88.66.89,1Z" style="fill:#231f20"/></g><rect x="21.91" y="23.93" width="0.31" height="3.17" style="fill:#231f20"/><polygon points="24.19 23.93 24.49 23.93 24.49 27.11 24.15 27.11 22.99 24.54 22.98 24.54 22.98 27.11 22.68 27.11 22.68 23.93 23.05 23.93 24.19 26.5 24.19 26.5 24.19 23.93" style="fill:#231f20"/><g style="clip-path:url(#clip-path)"><path d="M25.9,25.41h1v1.7h-.2l-.07-.41a.86.86,0,0,1-.75.5.8.8,0,0,1-.7-.36,2.14,2.14,0,0,1-.36-1.34c0-.77.34-1.65,1.08-1.65a1,1,0,0,1,1,1h-.3c-.1-.55-.43-.67-.68-.67-.41,0-.75.46-.75,1.29,0,.65.15,1.31.76,1.31a.58.58,0,0,0,.47-.2,1.18,1.18,0,0,0,.25-.85H25.9Z" style="fill:#231f20"/><path d="M2.75,32c-1,0-1.3-1-1.3-1.67s.3-1.67,1.3-1.67,1.3,1,1.3,1.67S3.74,32,2.75,32m0-3c-.58,0-.93.54-.93,1.29s.35,1.29.93,1.29.93-.54.93-1.29S3.32,29,2.75,29" style="fill:#231f20"/><path d="M4.79,31.91H4.43V28.73h1.2a.8.8,0,0,1,.79.89c0,.44-.21.94-.79.94H4.79Zm0-1.71h.72c.32,0,.54-.14.54-.57a.47.47,0,0,0-.53-.53H4.79Z" style="fill:#231f20"/><path d="M7.19,31.91H6.83V28.73H8a.8.8,0,0,1,.79.89c0,.44-.21.94-.79.94H7.19Zm0-1.71h.71c.32,0,.54-.14.54-.57a.47.47,0,0,0-.53-.53H7.19Z" style="fill:#231f20"/><path d="M10.36,32c-1,0-1.3-1-1.3-1.67s.3-1.67,1.3-1.67,1.3,1,1.3,1.67S11.35,32,10.36,32m0-3c-.58,0-.93.54-.93,1.29s.35,1.29.93,1.29.93-.54.93-1.29S10.94,29,10.36,29" style="fill:#231f20"/><path d="M12.41,31.91h-.36V28.73h1.23a.78.78,0,0,1,.88.85.8.8,0,0,1-.37.76c.15.08.3.16.32.6l0,.57c0,.18,0,.24.13.32v.07h-.44a4.7,4.7,0,0,1-.06-.8c0-.26,0-.57-.48-.57h-.87Zm0-1.73h.83c.26,0,.54-.08.54-.55s-.3-.53-.48-.53h-.9Z" style="fill:#231f20"/></g><polygon points="14.38 28.73 14.38 29.11 15.28 29.11 15.28 31.91 15.64 31.91 15.64 29.11 16.55 29.11 16.55 28.73 14.38 28.73" style="fill:#231f20"/><g style="clip-path:url(#clip-path)"><path d="M18.55,28.73v2c0,.69-.37.87-.7.87s-.68-.19-.68-.88v-2h-.36v2.12a1,1,0,0,0,1,1.14,1.06,1.06,0,0,0,1.07-1.2V28.73Z" style="fill:#231f20"/></g><polygon points="21.18 28.73 21.18 31.3 21.17 31.3 19.84 28.73 19.41 28.73 19.41 31.91 19.76 31.91 19.76 29.34 19.77 29.34 21.12 31.91 21.52 31.91 21.52 28.73 21.18 28.73" style="fill:#231f20"/><rect x="22.07" y="28.73" width="0.36" height="3.17" style="fill:#231f20"/><polygon points="22.74 28.73 22.74 29.11 23.64 29.11 23.64 31.91 24 31.91 24 29.11 24.9 29.11 24.9 28.73 22.74 28.73" style="fill:#231f20"/><polygon points="26.88 28.73 26.12 30.26 25.35 28.73 24.93 28.73 25.94 30.63 25.94 31.91 26.3 31.91 26.3 30.63 27.3 28.73 26.88 28.73" style="fill:#231f20"/></g></g></svg>