<svg xmlns="http://www.w3.org/2000/svg" xmlns:xlink="http://www.w3.org/1999/xlink" width="45" height="45" viewBox="0 0 45 45"><defs><clipPath id="clip-path" transform="translate(0 0)"><rect width="45" height="45" style="fill:none"/></clipPath></defs><title>icon-phone</title><g id="Layer_2" data-name="Layer 2"><g id="Layer_1-2" data-name="Layer 1"><g style="clip-path:url(#clip-path)"><path d="M42.46,3.43A.75.75,0,0,0,41.4,4.49a7.19,7.19,0,0,1,0,10.16.75.75,0,1,0,1.06,1.06,8.7,8.7,0,0,0,0-12.28" transform="translate(0 0)" style="fill:#e6cf9f"/><path d="M39.3,5.13A.75.75,0,0,0,38.24,6.2a4.92,4.92,0,0,1,0,7,.75.75,0,1,0,1.06,1.06,6.43,6.43,0,0,0,0-9.08" transform="translate(0 0)" style="fill:#e6cf9f"/><path d="M3.6,4.49A.75.75,0,0,0,2.54,3.43a8.7,8.7,0,0,0,0,12.29A.75.75,0,1,0,3.6,14.65a7.19,7.19,0,0,1,0-10.16" transform="translate(0 0)" style="fill:#e6cf9f"/><path d="M6.76,4.93a.75.75,0,0,0-1.06,0A6.43,6.43,0,0,0,5.7,14a.75.75,0,1,0,1.06-1.06,4.93,4.93,0,0,1,0-7,.75.75,0,0,0,0-1.06" transform="translate(0 0)" style="fill:#e6cf9f"/><path d="M24,39.75a1.5,1.5,0,1,1-1.5-1.5,1.5,1.5,0,0,1,1.5,1.5" transform="translate(0 0)" style="fill:#e6cf9f"/><path d="M33.75,34.5H11.25V6h22.5ZM22.5,42.75a3,3,0,1,1,3-3,3,3,0,0,1-3,3m-3-40.5h3a.75.75,0,0,1,0,1.5h-3a.75.75,0,0,1,0-1.5m5.25,0h.75a.75.75,0,0,1,0,1.5h-.75a.75.75,0,0,1,0-1.5M31.95,0H13.05a3.31,3.31,0,0,0-3.3,3.3V41.7A3.31,3.31,0,0,0,13.05,45H31.95a3.31,3.31,0,0,0,3.3-3.3V3.3A3.31,3.31,0,0,0,31.95,0" transform="translate(0 0)" style="fill:#e6cf9f"/></g></g></g></svg>